<svg width="48" height="48" viewBox="0 0 48 48" fill="none" xmlns="http://www.w3.org/2000/svg">
<rect width="48" height="48" rx="10" fill="white"/>
<path d="M36.5739 21.0023L42 18.4846L41.4077 17.2212L36.1622 19.6552L24.1997 11.7896V6H22.7995V11.7896L10.8378 19.6546L5.59231 17.2206L5 18.4839L10.2804 20.9338L13.5627 37.2332L10.3568 41.1145L11.4386 42L14.7399 38.0036L28.0035 32.8483L35.5622 41.9996L36.644 41.1141L29.0946 31.9748L36.5739 21.0023ZM28.1674 30.8524L25.2668 27.3406C25.4759 27.0156 25.6006 26.6322 25.6006 26.2188C25.6006 26.1777 25.5909 26.1401 25.5887 26.0996L34.0985 22.1514L28.1674 30.8524ZM34.6725 20.3457L25.0457 24.8128C24.816 24.5625 24.5275 24.3714 24.2014 24.255L24.2011 13.4599L34.6725 20.3457ZM22.7996 13.4596V24.2547C22.4727 24.3705 22.1848 24.5622 21.9554 24.8125L12.3286 20.3454L22.7996 13.4596ZM11.8558 21.6651L21.4114 26.0986C21.4089 26.1397 21.3992 26.1773 21.3992 26.2184C21.3992 26.6318 21.5239 27.0152 21.733 27.3402L14.7106 35.8429L11.8558 21.6651ZM16.5599 35.798L22.8402 28.1944C23.0487 28.2632 23.2681 28.3099 23.4997 28.3099C23.7313 28.3099 23.9507 28.2632 24.1592 28.1941L27.067 31.715L16.5599 35.798Z" fill="#0070BA"/>
</svg>
