<svg width="32" height="32" viewBox="0 0 32 32" fill="none" xmlns="http://www.w3.org/2000/svg">
<path d="M7.44138 32H24.5578C28.6509 32 31.9996 28.6514 31.9996 24.5582L32 19.721C32 19.0388 31.442 18.4807 30.7598 18.4807C30.0776 18.4807 29.5196 19.0388 29.5196 19.721V24.5582C29.5196 27.287 27.287 29.5196 24.5582 29.5196L7.44181 29.5192C4.713 29.5192 2.48043 27.2866 2.48043 24.5578L2.48086 7.44137C2.48086 4.71256 4.71343 2.47998 7.44224 2.47998L12.279 2.48042C12.9612 2.48042 13.5192 1.92237 13.5192 1.24021C13.5192 0.558043 12.9612 0 12.279 0H7.4418C3.34864 0 0 3.34864 0 7.4418V24.5582C0 28.6509 3.34908 32 7.4418 32H7.44138Z" fill="#0070BA"/>
<path d="M24.1857 1.61212L11.5345 14.2634C11.4103 14.3875 11.2866 14.5735 11.2243 14.8214L9.48784 21.023C9.30183 21.7052 9.67386 22.3874 10.356 22.5734C10.5421 22.6353 10.7904 22.6353 11.0382 22.5734L17.2398 20.837C17.4258 20.7751 17.6119 20.6509 17.7979 20.5268L30.5111 7.87555C32.2476 6.1391 32.2476 3.34849 30.5111 1.61205C28.7747 -0.124842 25.8599 -0.124842 24.1858 1.61161L24.1857 1.61212ZM12.4027 19.5967L13.023 17.4883L14.5734 19.0387L12.4027 19.5967ZM28.6508 6.07727L16.9298 17.7983L14.201 15.0695L25.922 3.34846C26.7284 2.66626 27.9686 2.72812 28.6508 3.53448C29.2708 4.27853 29.2708 5.33272 28.6504 6.0768L28.6508 6.07727Z" fill="#0070BA"/>
</svg>
