<svg width="48" height="48" viewBox="0 0 48 48" fill="none" xmlns="http://www.w3.org/2000/svg">
<rect width="48" height="48" rx="10" fill="white"/>
<path d="M38.511 25.9338V14.3358C38.5098 13.2621 38.0827 12.2329 37.3235 11.4737C36.5641 10.7145 35.5348 10.2874 34.4612 10.2862H33.4905V11.7083H34.4612V11.7086C35.1579 11.7093 35.8255 11.9863 36.3183 12.4789C36.8109 12.9715 37.0879 13.6393 37.0887 14.3358V16.4848L10.4221 16.4851V14.3358C10.4231 13.6393 10.7002 12.9715 11.1927 12.4789C11.6853 11.9863 12.3532 11.7093 13.0499 11.7085H15.5942V12.8993H14.937C14.5441 12.8993 14.2259 13.2177 14.2259 13.6103C14.2259 14.0032 14.5441 14.3214 14.937 14.3214H17.674H17.6738C18.0666 14.3214 18.3851 14.0032 18.3851 13.6103C18.3851 13.2177 18.0666 12.8993 17.6738 12.8993H17.0165V8.71104C17.0165 8.31844 16.6981 8 16.3052 8C15.9126 8 15.5942 8.31845 15.5942 8.71104V10.2862H13.0498C11.9762 10.2874 10.9467 10.7145 10.1875 11.4737C9.42832 12.2329 9.00121 13.2621 9 14.3358V33.4614C9.00124 34.535 9.42832 35.5645 10.1875 36.3237C10.9467 37.0829 11.9762 37.51 13.0498 37.5112H26.9342C28.461 39.0861 30.5557 39.9827 32.7491 39.9998C34.9426 40.0169 37.0512 39.153 38.6023 37.6022C40.1532 36.0511 41.017 33.9425 40.9999 31.749C40.9828 29.5556 40.0862 27.4608 38.5113 25.9341L38.511 25.9338ZM13.0496 36.0887C12.3529 36.0879 11.685 35.8109 11.1924 35.3183C10.6999 34.8258 10.4228 34.1579 10.4218 33.4612V17.907H37.0883V24.8251C34.9817 23.5309 32.4028 23.2578 30.0719 24.0825C27.7408 24.9069 25.9072 26.7405 25.0828 29.0716C24.2582 31.4027 24.5312 33.9815 25.8254 36.088L13.0496 36.0887ZM32.8069 38.5775V38.5777C31.0113 38.5777 29.2891 37.8642 28.0195 36.5946C26.7497 35.3248 26.0364 33.6028 26.0364 31.807C26.0364 30.0114 26.7497 28.2892 28.0195 27.0196C29.2891 25.7497 31.0113 25.0365 32.8069 25.0365C34.6028 25.0365 36.3247 25.7497 37.5946 27.0196C38.8641 28.2892 39.5777 30.0114 39.5777 31.807C39.5754 33.6021 38.8617 35.3231 37.5923 36.5924C36.3229 37.8617 34.6019 38.5755 32.8068 38.5778L32.8069 38.5775ZM36.5859 28.7452L37.5914 29.7506L32.1502 35.192L29.4458 32.4874L30.4516 31.482L32.1502 33.1806L36.5859 28.7452ZM30.4945 12.8995V11.7088H18.5917V10.2867L30.4945 10.2865V8.71132C30.4945 8.31871 30.8129 8.00027 31.2055 8.00027C31.5984 8.00027 31.9168 8.31872 31.9168 8.71132V12.8995H32.5741C32.9667 12.8995 33.2851 13.218 33.2851 13.6106C33.2851 14.0034 32.9667 14.3216 32.5741 14.3216H29.837C29.4444 14.3216 29.126 14.0034 29.126 13.6106C29.126 13.218 29.4444 12.8995 29.837 12.8995L30.4945 12.8995Z" fill="#0070BA"/>
</svg>
