<svg width="42" height="42" viewBox="0 0 42 42" fill="none" xmlns="http://www.w3.org/2000/svg">
<path d="M20.794 7.00166C19.6579 7.02575 18.517 7.25817 17.4291 7.70869C13.9473 9.15111 11.6667 12.5635 11.6667 16.332C11.6579 16.9567 11.8998 17.5586 12.3383 18.0036C12.7768 18.4483 13.3754 18.6986 14 18.6986C14.6247 18.6986 15.2234 18.4483 15.6618 18.0036C16.1003 17.5586 16.3421 16.9568 16.3333 16.332C16.3333 14.4375 17.4642 12.7451 19.2145 12.0199C20.9648 11.2949 22.9616 11.6921 24.3014 13.0316C25.6409 14.3714 26.0381 16.3682 25.3132 18.1185C24.5879 19.8689 22.8955 20.9997 21.001 20.9997H21H20.999C20.3099 20.9912 19.652 21.2878 19.2022 21.8099C18.7523 22.332 18.5564 23.0264 18.6667 23.7068V27.9998C18.6667 29.2924 19.7074 30.3331 21.0001 30.3331C22.2927 30.3331 23.3334 29.2924 23.3334 27.9998V25.363C26.1267 24.639 28.489 22.6485 29.6251 19.905C31.0675 16.4233 30.2667 12.3972 27.6016 9.7325C25.7696 7.9005 23.2937 6.94867 20.7941 7.002L20.794 7.00166Z" fill="#0070BA"/>
<path d="M20.9998 32.6666C22.2925 32.6666 23.3332 33.7073 23.3332 35C23.3332 36.2926 22.2925 37.3333 20.9998 37.3333C19.7072 37.3333 18.6665 36.2926 18.6665 35C18.6665 33.7073 19.7072 32.6666 20.9998 32.6666Z" fill="#0070BA"/>
<path d="M21 0C9.41583 0 0 9.41583 0 21C0 32.5842 9.41583 42 21 42C32.5842 42 42 32.5842 42 21C42 9.41583 32.5842 0 21 0ZM21 2.33333C31.3233 2.33333 39.6667 10.6767 39.6667 21C39.6667 31.3233 31.3233 39.6667 21 39.6667C10.6767 39.6667 2.33333 31.3233 2.33333 21C2.33333 10.6767 10.6767 2.33333 21 2.33333Z" fill="#0070BA"/>
</svg>
