<svg width="48" height="48" viewBox="0 0 48 48" fill="none" xmlns="http://www.w3.org/2000/svg">
<rect width="48" height="48" rx="10" fill="white"/>
<path d="M23.5001 23.927C19.102 23.927 15.5153 20.3403 15.5153 15.9421C15.5153 11.5438 19.102 8 23.5001 8C27.8983 8 31.485 11.5441 31.485 15.9421C31.485 20.3402 27.8983 23.927 23.5001 23.927ZM23.5001 8.85399C19.5717 8.85399 16.3693 12.0565 16.3693 15.9848C16.3693 19.9132 19.5717 23.0728 23.5001 23.0728C27.4285 23.0728 30.631 19.8703 30.631 15.9419C30.631 12.0135 27.4285 8.85399 23.5001 8.85399Z" fill="#0070BA"/>
<path d="M23.5002 28.4532C21.1945 28.4532 18.9741 27.7273 17.1378 26.4037C16.9671 26.2756 16.8817 26.0195 17.0523 25.8059C17.1804 25.6352 17.4366 25.5498 17.6501 25.7204C19.358 26.9586 21.4078 27.5993 23.5427 27.5993C25.6777 27.5993 27.6846 26.9589 29.4354 25.7204C29.6061 25.5923 29.9051 25.6349 30.0332 25.8059C30.1612 25.9766 30.1187 26.2756 29.9477 26.4037C28.0263 27.7273 25.8058 28.4532 23.5001 28.4532H23.5002Z" fill="#0070BA"/>
<path d="M38.5731 39H8.42712C8.17097 39 8 38.8293 8 38.5728V37.2918C8 31.6553 11.8003 26.873 17.2658 25.6347C17.3939 25.5922 17.522 25.6347 17.6075 25.7202C19.3153 26.9584 21.3651 27.5991 23.5001 27.5991C25.6351 27.5991 27.642 26.9587 29.3928 25.7202C29.4782 25.6347 29.6063 25.6347 29.7344 25.6347C35.2 26.9158 39.0002 31.6981 39.0002 37.2918V38.5728C39.0002 38.829 38.8293 39 38.5731 39H38.5731ZM8.85412 38.1457H38.1888V37.2918C38.1888 32.125 34.7302 27.7271 29.7343 26.4888C27.8983 27.7699 25.7634 28.4102 23.5 28.4102C21.2795 28.4102 19.1019 27.7269 17.2657 26.4888C12.2698 27.7269 8.81111 32.1253 8.81111 37.2918V38.1457H8.85412Z" fill="#0070BA"/>
</svg>
